<?xml version="1.0" encoding="UTF-8" standalone="no"?> <svg width="64" height="64" viewBox="0 0 64 64" fill="none" xmlns="http://www.w3.org/2000/svg">
<path d="M44.2599 40.3702C44.2422 40.1173 44.1291 39.8806 43.9434 39.7079C43.7578 39.5353 43.5135 39.4396 43.2599 39.4402C42.1457 39.5557 41.0504 39.8111 39.9999 40.2002C37.8299 41.0402 35.7499 43.7502 33.4799 43.7902C32.1999 43.7902 30.9899 42.8902 29.7099 41.9402C28.041 40.5126 25.9678 39.6421 23.7799 39.4502C23.6374 39.43 23.4921 39.4409 23.3542 39.482C23.2162 39.5232 23.0887 39.5936 22.9805 39.6886C22.8722 39.7835 22.7858 39.9007 22.727 40.0322C22.6682 40.1636 22.6385 40.3062 22.6399 40.4502V60.0802C22.6382 60.2732 22.6925 60.4626 22.796 60.6255C22.8996 60.7884 23.0481 60.9178 23.2236 60.9982C23.3991 61.0786 23.5942 61.1064 23.7851 61.0784C23.9761 61.0503 24.1549 60.9676 24.2999 60.8402L33.4799 52.8402L42.6599 60.8402C42.805 60.9676 42.9837 61.0503 43.1747 61.0784C43.3657 61.1064 43.5607 61.0786 43.7363 60.9982C43.9118 60.9178 44.0603 60.7884 44.1639 60.6255C44.2674 60.4626 44.3216 60.2732 44.3199 60.0802C44.2499 60.0002 44.3099 40.4602 44.2599 40.3702Z" fill="#007BC1"/>
<path d="M52.5399 19.4801C51.2769 18.0433 50.5245 16.2291 50.3999 14.3201C49.6399 7.26009 46.1199 8.32009 40.7299 6.83009C35.8899 4.00009 34.0499 0.840087 28.4799 5.34009C27.042 6.60615 25.2224 7.35579 23.3099 7.47009C16.2499 8.24009 17.3099 11.7601 15.8299 17.1501C14.7599 19.5101 12.0599 21.5101 12.0799 24.4401C12.0999 27.3701 14.7599 29.3701 15.8299 31.7301C16.1482 32.6466 16.3629 33.5958 16.4699 34.5601C17.4699 43.7901 23.5199 39.3001 28.4699 43.5601C34.0399 48.0501 35.8599 44.9501 40.7199 42.0701C43.1299 41.1301 46.5499 41.5901 48.5299 39.5601C50.5099 37.5301 50.0899 34.1701 51.0299 31.7501C53.9099 26.8901 56.9999 25.0601 52.5399 19.4801Z" fill="#F6871F"/>
<path d="M33.4399 10.9302C29.8577 10.9328 26.4229 12.357 23.8898 14.8901C21.3568 17.4231 19.9326 20.8579 19.9299 24.4402C20.6699 42.3602 46.2099 42.3602 46.9299 24.4402C46.9273 20.8614 45.5058 17.4296 42.9771 14.8971C40.4484 12.3647 37.0187 10.9381 33.4399 10.9302V10.9302Z" fill="#FEBE10"/>
</svg>
