<?xml version="1.0" encoding="UTF-8" standalone="no"?> <svg xmlns="http://www.w3.org/2000/svg" width="128.297" height="118.274" viewBox="0 0 128.297 118.274">
  <g id="school_4_" data-name="school (4)" transform="translate(0 -20)">
    <g id="Group_2861" data-name="Group 2861" transform="translate(5.959 48.065)">
      <path id="Path_3692" data-name="Path 3692" d="M140.05,220.2H23.781V166.079H47.837L81.916,132,116,166.079H140.05Z" transform="translate(-23.781 -132)" fill="#e6be94"/>
    </g>
    <g id="Group_2862" data-name="Group 2862" transform="translate(52.066 112.213)">
      <rect id="Rectangle_1329" data-name="Rectangle 1329" width="24.056" height="24.056" fill="#996459"/>
    </g>
    <g id="Group_2863" data-name="Group 2863" transform="translate(52.066 104.195)">
      <path id="Path_3693" data-name="Path 3693" d="M231.336,356H208.282a.5.5,0,0,0-.5.5v7.517h24.056V356.5A.5.5,0,0,0,231.336,356Z" transform="translate(-207.781 -356)" fill="#4bb9ec"/>
    </g>
    <g id="Group_2864" data-name="Group 2864" transform="translate(62.144 24.009)">
      <path id="Path_3694" data-name="Path 3694" d="M268.452,44.019l3.267-4.9A2,2,0,0,0,270.051,36H250a2,2,0,0,0-2,2V50.032a2,2,0,0,0,2,2h20.046a2,2,0,0,0,1.668-3.117Z" transform="translate(-248 -36)" fill="#ff4f19"/>
    </g>
    <g id="Group_2866" data-name="Group 2866" transform="translate(62.144 20)">
      <g id="Group_2865" data-name="Group 2865">
        <path id="Path_3695" data-name="Path 3695" d="M250,50.07a2,2,0,0,1-2-2V22a2,2,0,0,1,4.009,0v26.06A2,2,0,0,1,250,50.07Z" transform="translate(-248 -20)" fill="#5c546a"/>
      </g>
    </g>
    <g id="Group_2867" data-name="Group 2867" transform="translate(72.112 56.084)">
      <path id="Path_3696" data-name="Path 3696" d="M287.933,165.237A2,2,0,0,1,289.785,164h38.088a2.007,2.007,0,0,1,1.691.928L343.6,186.979a2,2,0,0,1-1.691,3.081h-30.07a2,2,0,0,1-1.417-.587l-22.051-22.051A2,2,0,0,1,287.933,165.237Z" transform="translate(-287.779 -164)" fill="#ff4f19"/>
    </g>
    <g id="Group_2868" data-name="Group 2868" transform="translate(0 56.084)">
      <path id="Path_3697" data-name="Path 3697" d="M55.977,165.237A2,2,0,0,0,54.125,164H16.037a2.007,2.007,0,0,0-1.691.928L.313,186.979A2,2,0,0,0,2,190.06h30.07a2,2,0,0,0,1.417-.587l22.051-22.051A2,2,0,0,0,55.977,165.237Z" transform="translate(0 -164)" fill="#ff4f19"/>
    </g>
    <g id="Group_2870" data-name="Group 2870" transform="translate(28.092 46.06)">
      <g id="Group_2869" data-name="Group 2869" transform="translate(0 0)">
        <path id="Path_3698" data-name="Path 3698" d="M182.217,162.06a2,2,0,0,1-1.417-.587l-32.634-32.634-32.634,32.634a2,2,0,1,1-2.835-2.835l34.052-34.052a2,2,0,0,1,2.835,0l34.052,34.052a2,2,0,0,1-1.418,3.422Z" transform="translate(-112.109 -123.999)" fill="#e3001e"/>
      </g>
    </g>
    <g id="Group_2871" data-name="Group 2871" transform="translate(52.121 70.116)">
      <circle id="Ellipse_259" data-name="Ellipse 259" cx="12" cy="12" r="12" transform="translate(0.028 0.022)" fill="#ffebb7"/>
    </g>
    <g id="Group_2872" data-name="Group 2872" transform="translate(56.13 74.125)">
      <path id="Path_3699" data-name="Path 3699" d="M232.019,236a2,2,0,0,0-2,2v4.009H226a2,2,0,0,0,0,4.009h6.014a2,2,0,0,0,2-2V238A2,2,0,0,0,232.019,236Z" transform="translate(-224 -236)" fill="#5c546a"/>
    </g>
    <g id="Group_2875" data-name="Group 2875" transform="translate(82.19 88.158)">
      <g id="Group_2873" data-name="Group 2873" transform="translate(1.95 2.005)">
        <path id="Path_3700" data-name="Path 3700" d="M345.8,305.012a5.012,5.012,0,1,0-9.922,1h-.1v8.019H345.8v-8.019h-.1A5.025,5.025,0,0,0,345.8,305.012Z" transform="translate(-335.781 -300)" fill="#4bb9ec"/>
      </g>
      <g id="Group_2874" data-name="Group 2874">
        <path id="Path_3701" data-name="Path 3701" d="M335.016,292A7.025,7.025,0,0,0,328,299.016v9.021a2,2,0,0,0,2,2h10.023a2,2,0,0,0,2-2v-9.021A7.025,7.025,0,0,0,335.016,292Zm0,4.009a3.01,3.01,0,0,1,3.007,3.007v1h-6.014v-1A3.01,3.01,0,0,1,335.016,296.009Zm-3.007,10.023v-2h6.014v2Z" transform="translate(-328 -292)" fill="#7e5c62"/>
      </g>
    </g>
    <g id="Group_2878" data-name="Group 2878" transform="translate(32.074 112.213)">
      <g id="Group_2876" data-name="Group 2876" transform="translate(2.005 2.005)">
        <rect id="Rectangle_1330" data-name="Rectangle 1330" width="10" height="12" transform="translate(0.069 -0.082)" fill="#4bb9ec"/>
      </g>
      <g id="Group_2877" data-name="Group 2877">
        <path id="Path_3702" data-name="Path 3702" d="M140.028,388H130a2,2,0,0,0-2,2v12.028a2,2,0,0,0,2,2h10.023a2,2,0,0,0,2-2V390A2,2,0,0,0,140.028,388Zm-2,4.009v2h-6.014v-2Zm-6.014,8.019v-2h6.014v2Z" transform="translate(-128 -388)" fill="#7e5c62"/>
      </g>
    </g>
    <g id="Group_2881" data-name="Group 2881" transform="translate(13.978 112.213)">
      <g id="Group_2879" data-name="Group 2879" transform="translate(2.005 2.005)">
        <rect id="Rectangle_1331" data-name="Rectangle 1331" width="10.023" height="12.028" fill="#4bb9ec"/>
      </g>
      <g id="Group_2880" data-name="Group 2880">
        <path id="Path_3703" data-name="Path 3703" d="M67.809,388H57.786a2,2,0,0,0-2,2v12.028a2,2,0,0,0,2,2H67.809a2,2,0,0,0,2-2V390A2,2,0,0,0,67.809,388Zm-2,4.009v2H59.79v-2Zm-6.014,8.019v-2H65.8v2Z" transform="translate(-55.781 -388)" fill="#7e5c62"/>
      </g>
    </g>
    <g id="Group_2884" data-name="Group 2884" transform="translate(100.232 112.213)">
      <g id="Group_2882" data-name="Group 2882" transform="translate(2.005 2.005)">
        <rect id="Rectangle_1332" data-name="Rectangle 1332" width="10" height="12" transform="translate(-0.088 -0.082)" fill="#4bb9ec"/>
      </g>
      <g id="Group_2883" data-name="Group 2883">
        <path id="Path_3704" data-name="Path 3704" d="M412.028,388H402a2,2,0,0,0-2,2v12.028a2,2,0,0,0,2,2h10.023a2,2,0,0,0,2-2V390A2,2,0,0,0,412.028,388Zm-2,4.009v2h-6.014v-2Zm-6.014,8.019v-2h6.014v2Z" transform="translate(-400 -388)" fill="#7e5c62"/>
      </g>
    </g>
    <g id="Group_2887" data-name="Group 2887" transform="translate(82.135 112.213)">
      <g id="Group_2885" data-name="Group 2885" transform="translate(2.005 2.005)">
        <rect id="Rectangle_1333" data-name="Rectangle 1333" width="10.023" height="12.028" fill="#4bb9ec"/>
      </g>
      <g id="Group_2886" data-name="Group 2886">
        <path id="Path_3705" data-name="Path 3705" d="M339.809,388H329.786a2,2,0,0,0-2,2v12.028a2,2,0,0,0,2,2h10.023a2,2,0,0,0,2-2V390A2,2,0,0,0,339.809,388Zm-2,4.009v2H331.79v-2Zm-6.014,8.019v-2H337.8v2Z" transform="translate(-327.781 -388)" fill="#7e5c62"/>
      </g>
    </g>
    <g id="Group_2890" data-name="Group 2890" transform="translate(100.177 88.158)">
      <g id="Group_2888" data-name="Group 2888" transform="translate(1.95 2.005)">
        <path id="Path_3706" data-name="Path 3706" d="M417.586,305.012a5.012,5.012,0,1,0-9.922,1h-.1v8.019h10.023v-8.019h-.1A5.04,5.04,0,0,0,417.586,305.012Z" transform="translate(-407.563 -300)" fill="#4bb9ec"/>
      </g>
      <g id="Group_2889" data-name="Group 2889">
        <path id="Path_3707" data-name="Path 3707" d="M406.8,292a7.025,7.025,0,0,0-7.016,7.016v9.021a2,2,0,0,0,2,2h10.023a2,2,0,0,0,2-2v-9.021A7.025,7.025,0,0,0,406.8,292Zm0,4.009a3.01,3.01,0,0,1,3.007,3.007v1H403.79v-1A3.01,3.01,0,0,1,406.8,296.009Zm-3.007,10.023v-2H409.8v2Z" transform="translate(-399.781 -292)" fill="#7e5c62"/>
      </g>
    </g>
    <g id="Group_2893" data-name="Group 2893" transform="translate(13.978 88.158)">
      <g id="Group_2891" data-name="Group 2891" transform="translate(1.95 2.005)">
        <path id="Path_3708" data-name="Path 3708" d="M73.586,305.012a5.012,5.012,0,1,0-9.922,1h-.1v8.019H73.586v-8.019h-.1A5.042,5.042,0,0,0,73.586,305.012Z" transform="translate(-63.563 -300)" fill="#4bb9ec"/>
      </g>
      <g id="Group_2892" data-name="Group 2892">
        <path id="Path_3709" data-name="Path 3709" d="M62.8,292a7.025,7.025,0,0,0-7.016,7.016v9.021a2,2,0,0,0,2,2H67.809a2,2,0,0,0,2-2v-9.021A7.025,7.025,0,0,0,62.8,292Zm0,4.009a3.01,3.01,0,0,1,3.007,3.007v1H59.79v-1A3.01,3.01,0,0,1,62.8,296.009ZM59.79,306.032v-2H65.8v2Z" transform="translate(-55.781 -292)" fill="#7e5c62"/>
      </g>
    </g>
    <g id="Group_2896" data-name="Group 2896" transform="translate(31.965 88.158)">
      <g id="Group_2894" data-name="Group 2894" transform="translate(1.95 2.005)">
        <path id="Path_3710" data-name="Path 3710" d="M145.367,305.012a5.012,5.012,0,1,0-9.922,1h-.1v8.019h10.023v-8.019h-.1A5.042,5.042,0,0,0,145.367,305.012Z" transform="translate(-135.344 -300)" fill="#4bb9ec"/>
      </g>
      <g id="Group_2895" data-name="Group 2895">
        <path id="Path_3711" data-name="Path 3711" d="M134.579,292a7.025,7.025,0,0,0-7.016,7.016v9.021a2,2,0,0,0,2,2h10.023a2,2,0,0,0,2-2v-9.021A7.025,7.025,0,0,0,134.579,292Zm0,4.009a3.01,3.01,0,0,1,3.007,3.007v1h-6.014v-1A3.01,3.01,0,0,1,134.579,296.009Zm-3.007,10.023v-2h6.014v2Z" transform="translate(-127.563 -292)" fill="#7e5c62"/>
      </g>
    </g>
    <g id="Group_2897" data-name="Group 2897" transform="translate(50.116 68.111)">
      <path id="Path_3712" data-name="Path 3712" d="M214.032,240.065a14.032,14.032,0,1,1,14.032-14.032A14.048,14.048,0,0,1,214.032,240.065Zm0-24.056a10.023,10.023,0,1,0,10.023,10.023A10.035,10.035,0,0,0,214.032,216.009Z" transform="translate(-200 -212)" fill="#7e5c62"/>
    </g>
    <g id="Group_2898" data-name="Group 2898" transform="translate(50.116 102.19)">
      <path id="Path_3713" data-name="Path 3713" d="M222.051,348H206.014A6.021,6.021,0,0,0,200,354.014v28.065a2,2,0,0,0,4.009,0V360.028h7.964v22.051h4.009V360.028h8.073v22.051a2,2,0,0,0,4.009,0V354.014A6.021,6.021,0,0,0,222.051,348Zm2,8.019H204.009v-2a2.006,2.006,0,0,1,2-2h16.037a2.006,2.006,0,0,1,2,2Z" transform="translate(-200 -348)" fill="#7e5c62"/>
    </g>
    <g id="Group_2900" data-name="Group 2900" transform="translate(0 134.264)">
      <g id="Group_2899" data-name="Group 2899" transform="translate(0 0)">
        <path id="Path_3714" data-name="Path 3714" d="M126.292,480.009H2A2,2,0,1,1,2,476H126.292a2,2,0,1,1,0,4.009Z" transform="translate(0 -476)" fill="#5c546a"/>
      </g>
    </g>
  </g>
</svg>
